<svg width="80" height="80" viewBox="0 0 80 80" fill="none" xmlns="http://www.w3.org/2000/svg">
<circle cx="40" cy="40" r="40" fill="#020E28"/>
<path d="M35.3337 57.0001C36.2541 57.0001 37.0003 56.2539 37.0003 55.3334C37.0003 54.4129 36.2541 53.6667 35.3337 53.6667C34.4132 53.6667 33.667 54.4129 33.667 55.3334C33.667 56.2539 34.4132 57.0001 35.3337 57.0001Z" stroke="white" stroke-width="3" stroke-linecap="round" stroke-linejoin="round"/>
<path d="M53.6667 57.0001C54.5871 57.0001 55.3333 56.2539 55.3333 55.3334C55.3333 54.4129 54.5871 53.6667 53.6667 53.6667C52.7462 53.6667 52 54.4129 52 55.3334C52 56.2539 52.7462 57.0001 53.6667 57.0001Z" stroke="white" stroke-width="3" stroke-linecap="round" stroke-linejoin="round"/>
<path d="M22 22H28.6667L33.1333 44.3167C33.2857 45.084 33.7032 45.7733 34.3126 46.2638C34.922 46.7544 35.6845 47.015 36.4667 47H52.6667C53.4488 47.015 54.2114 46.7544 54.8208 46.2638C55.4302 45.7733 55.8476 45.084 56 44.3167L58.6667 30.3333H30.3333" stroke="white" stroke-width="3" stroke-linecap="round" stroke-linejoin="round"/>
</svg>
